HIERARCHY
ROOT Hips
{
	OFFSET 0.000000 0.000000 0.000000
	CHANNELS 6 Xposition Yposition Zposition Xrotation Zrotation Yrotation
	JOINT Spine
	{
		OFFSET 0.000000 -0.744707 -0.000000
		CHANNELS 6 Xposition Yposition Zposition Xrotation Zrotation Yrotation
		JOINT Spine1
		{
			OFFSET 0.000000 -2.032240 -0.000000
			CHANNELS 6 Xposition Yposition Zposition Xrotation Zrotation Yrotation
			JOINT Neck
			{
				OFFSET 0.000000 -2.213880 -0.000000
				CHANNELS 6 Xposition Yposition Zposition Xrotation Zrotation Yrotation
				JOINT Head
				{
					OFFSET 0.000000 -1.407680 -0.181636
					CHANNELS 6 Xposition Yposition Zposition Xrotation Zrotation Yrotation
					End Site
					{
						OFFSET 0.000000 -1.816356 -0.000000
					}
				}
			}
			JOINT LeftShoulder
			{
				OFFSET 0.365767 -1.787590 0.048012
				CHANNELS 6 Xposition Yposition Zposition Xrotation Zrotation Yrotation
				JOINT LeftArm
				{
					OFFSET 1.305160 0.000000 0.000000
					CHANNELS 6 Xposition Yposition Zposition Xrotation Zrotation Yrotation
					JOINT LeftForeArm
					{
						OFFSET 2.559210 0.000000 0.000000
						CHANNELS 6 Xposition Yposition Zposition Xrotation Zrotation Yrotation
						JOINT LeftHand
						{
							OFFSET 2.378450 0.000000 0.000000
							CHANNELS 6 Xposition Yposition Zposition Xrotation Zrotation Yrotation
							End Site
							{
								OFFSET 1.362267 0.000000 0.000000
							}
						}
					}
				}
			}
			JOINT RightShoulder
			{
				OFFSET -0.360721 -1.787590 0.048012
				CHANNELS 6 Xposition Yposition Zposition Xrotation Zrotation Yrotation
				JOINT RightArm
				{
					OFFSET -1.305160 0.000000 0.000000
					CHANNELS 6 Xposition Yposition Zposition Xrotation Zrotation Yrotation
					JOINT RightForeArm
					{
						OFFSET -2.559210 0.000000 0.000000
						CHANNELS 6 Xposition Yposition Zposition Xrotation Zrotation Yrotation
						JOINT RightHand
						{
							OFFSET -2.378450 0.000000 0.000000
							CHANNELS 6 Xposition Yposition Zposition Xrotation Zrotation Yrotation
							End Site
							{
								OFFSET -1.362267 0.000000 0.000000
							}
						}
					}
				}
			}
		}
	}
	JOINT LeftUpLeg
	{
		OFFSET 0.908180 0.000000 0.000000
		CHANNELS 6 Xposition Yposition Zposition Xrotation Zrotation Yrotation
		JOINT LeftLeg
		{
			OFFSET 0.000000 3.819490 0.000002
			CHANNELS 6 Xposition Yposition Zposition Xrotation Zrotation Yrotation
			JOINT LeftFoot
			{
				OFFSET 0.000000 4.004300 0.000002
				CHANNELS 6 Xposition Yposition Zposition Xrotation Zrotation Yrotation
				JOINT LeftToeBase
				{
					OFFSET 0.000000 0.590317 -1.362270
					CHANNELS 6 Xposition Yposition Zposition Xrotation Zrotation Yrotation
					End Site
					{
						OFFSET 0.000000 0.000000 -0.363271
					}
				}
			}
		}
	}
	JOINT RightUpLeg
	{
		OFFSET -0.908180 0.000000 0.000000
		CHANNELS 6 Xposition Yposition Zposition Xrotation Zrotation Yrotation
		JOINT RightLeg
		{
			OFFSET 0.000000 3.819490 0.000002
			CHANNELS 6 Xposition Yposition Zposition Xrotation Zrotation Yrotation
			JOINT RightFoot
			{
				OFFSET 0.000000 4.004300 0.000002
				CHANNELS 6 Xposition Yposition Zposition Xrotation Zrotation Yrotation
				JOINT RightToeBase
				{
					OFFSET 0.000000 0.590317 -1.362270
					CHANNELS 6 Xposition Yposition Zposition Xrotation Zrotation Yrotation
					End Site
					{
						OFFSET 0.000000 0.000000 -0.363271
					}
				}
			}
		}
	}
}
MOTION
Frames: 4
Frame Time: 0.016667
-1.172897 -7.610187 -1.838406 9.129767 -1.334757 0.186466 -0.000000 -0.744707 0.000000 -17.676702 4.524366 2.131405 0.000000 -2.032241 -0.000002 5.982484 -12.252967 0.310902 -0.000000 -2.213882 -0.000001 12.503307 -0.771149 -3.368105 -0.000000 -1.407679 -0.181636 1.182557 7.501526 -4.384208 0.365767 -1.787590 0.048012 -8.708433 -21.120685 0.351734 1.305162 -0.000003 -0.000000 -9.338624 3.699790 12.304207 2.559211 0.000000 0.000000 -5.888803 2.160347 -0.663889 2.378450 0.000000 -0.000001 -6.562528 3.909935 -19.912793 -0.360721 -1.787590 0.048012 1.138390 16.813366 5.808775 -1.305160 -0.000002 0.000000 37.556939 0.076289 -26.526163 -2.559210 0.000001 -0.000001 -31.864885 29.698387 -91.841592 -2.378451 -0.000000 0.000000 5.670142 47.273778 15.679937 0.908180 0.000000 0.000000 -18.592472 -17.102816 -10.317848 0.000000 3.819491 0.000002 22.649778 1.945888 -3.698985 -0.000000 4.004301 0.000002 -1.936670 8.597601 -18.257330 -0.000000 0.590317 -1.362270 0.000003 -0.000002 0.000001 -0.908180 0.000000 0.000000 -23.918416 21.045828 -3.554641 0.000001 3.819490 0.000002 30.901961 -10.347582 -19.559929 -0.000000 4.004300 0.000002 -15.812622 -4.494032 49.319802 -0.000000 0.590316 -1.362270 0.000004 0.000003 0.000002 
-1.173770 -7.610147 -1.838429 9.129061 -1.327309 0.194848 -0.000000 -0.744705 0.000000 -17.684557 4.517609 2.126792 0.000000 -2.032238 -0.000001 5.987623 -12.256066 0.308504 -0.000000 -2.213880 -0.000000 12.520243 -0.786252 -3.421897 0.000000 -1.407683 -0.181637 1.125224 7.508672 -4.444588 0.365767 -1.787588 0.048011 -8.715949 -21.109973 0.359037 1.305162 0.000000 -0.000000 -9.346000 3.695762 12.298551 2.559211 -0.000000 0.000001 -5.893533 2.174092 -0.670374 2.378451 0.000001 -0.000000 -6.558496 3.859813 -19.920296 -0.360721 -1.787588 0.048011 1.136483 16.818542 5.800818 -1.305161 0.000002 -0.000000 37.618315 0.094150 -26.502174 -2.559211 0.000000 -0.000002 -31.949006 29.723047 -91.865771 -2.378449 0.000001 -0.000000 5.592050 47.285499 15.604336 0.908180 0.000001 0.000000 -18.584451 -17.112844 -10.295288 0.000000 3.819489 0.000002 22.640745 1.948568 -3.721866 0.000000 4.004301 0.000000 -1.941088 8.643645 -18.266931 -0.000000 0.590317 -1.362270 -0.000002 0.000002 -0.000002 -0.908180 0.000001 0.000000 -23.915037 21.029936 -3.544266 0.000001 3.819491 0.000002 30.894701 -10.343425 -19.542909 -0.000000 4.004300 0.000001 -15.807851 -4.488262 49.295026 -0.000000 0.590316 -1.362270 0.000004 -0.000000 -0.000002 
-1.174628 -7.609983 -1.838607 9.121936 -1.327093 0.194868 0.000000 -0.744707 0.000000 -17.680155 4.519382 2.126720 -0.000000 -2.032241 -0.000000 5.984139 -12.259069 0.308749 -0.000000 -2.213879 -0.000000 12.517700 -0.794723 -3.482900 0.000000 -1.407683 -0.181637 1.099124 7.493739 -4.507679 0.365767 -1.787590 0.048012 -8.723361 -21.095087 0.362840 1.305162 -0.000003 -0.000000 -9.319287 3.683571 12.296048 2.559211 -0.000003 0.000001 -5.901173 2.180621 -0.671085 2.378449 0.000001 0.000000 -6.565702 3.856587 -19.925561 -0.360722 -1.787589 0.048012 1.150517 16.822401 5.810779 -1.305161 -0.000002 -0.000000 37.613251 0.106750 -26.494333 -2.559209 0.000001 -0.000001 -31.966819 29.715599 -91.881016 -2.378449 0.000000 -0.000000 5.594285 47.291465 15.646930 0.908180 0.000000 0.000000 -18.574530 -17.114041 -10.273880 0.000000 3.819490 0.000002 22.633025 1.946984 -3.706660 0.000000 4.004299 0.000001 -1.935135 8.606754 -18.295703 0.000000 0.590317 -1.362270 -0.000001 -0.000000 0.000003 -0.908180 0.000000 0.000000 -23.907515 21.026802 -3.518884 0.000000 3.819490 0.000002 30.904011 -10.332692 -19.583435 -0.000000 4.004299 0.000001 -15.802631 -4.455800 49.297567 -0.000000 0.590317 -1.362270 0.000002 0.000001 0.000008 
-1.175332 -7.609899 -1.838417 9.121393 -1.318122 0.205673 0.000000 -0.744708 -0.000000 -17.684688 4.505983 2.122063 0.000000 -2.032239 -0.000000 5.989008 -12.258281 0.306168 -0.000000 -2.213878 0.000000 12.518858 -0.801991 -3.535876 -0.000000 -1.407678 -0.181636 1.065388 7.483980 -4.563552 0.365767 -1.787590 0.048012 -8.729045 -21.098839 0.357653 1.305159 0.000002 0.000000 -9.290528 3.696845 12.297061 2.559212 -0.000001 0.000000 -5.910729 2.175491 -0.666620 2.378449 0.000001 -0.000000 -6.576241 3.859160 -19.937715 -0.360721 -1.787588 0.048012 1.145064 16.837465 5.805093 -1.305160 0.000001 -0.000001 37.599812 0.090950 -26.485739 -2.559209 -0.000001 0.000000 -31.951984 29.705920 -91.890647 -2.378449 0.000002 -0.000001 5.617730 47.292807 15.677367 0.908180 -0.000000 0.000000 -18.567688 -17.120897 -10.234536 -0.000000 3.819490 0.000001 22.619532 1.948273 -3.748089 -0.000000 4.004301 0.000001 -1.936721 8.611740 -18.300725 0.000000 0.590317 -1.362270 0.000001 -0.000001 -0.000001 -0.908180 -0.000001 -0.000000 -23.922572 21.010111 -3.521377 0.000001 3.819491 0.000001 30.925918 -10.332918 -19.613737 -0.000000 4.004300 0.000001 -15.810708 -4.459079 49.320926 0.000001 0.590317 -1.362269 -0.000000 -0.000002 0.000003 
